<svg width="1440" height="875" viewBox="0 0 1440 875" fill="none" xmlns="http://www.w3.org/2000/svg">
<path d="M-0.393921 38.3772C-0.393921 38.3772 428.106 6.49615e-09 719.106 6.49669e-09C1010.11 6.49723e-09 1439.61 38.3772 1439.61 38.3772V821.271C1439.61 821.271 1004.11 875 719.606 875C435.106 875 -0.393921 821.271 -0.393921 821.271V38.3772Z" fill="#21C5DB"/>
<path d="M80.7725 461.485H75.1328V430.785H80.7725V450.144L89.1191 439.562H95.5586L88.2783 448.709L95.5586 461.485H89.1191L84.6689 453.508L80.7725 458.676V461.485Z" fill="white" fill-opacity="0.2"/>
<path d="M210.801 766.631H204.936V745.631C204.936 745.22 204.854 744.838 204.69 744.482C204.539 744.127 204.327 743.819 204.054 743.559C203.794 743.286 203.487 743.074 203.131 742.924C202.776 742.773 202.393 742.698 201.983 742.698C201.573 742.698 201.19 742.773 200.834 742.924C200.479 743.074 200.164 743.286 199.891 743.559C199.631 743.819 199.426 744.127 199.276 744.482C199.125 744.838 199.05 745.22 199.05 745.631V766.631H193.164V745.631C193.164 745.22 193.089 744.838 192.939 744.482C192.788 744.127 192.576 743.819 192.303 743.559C192.043 743.286 191.736 743.074 191.38 742.924C191.025 742.773 190.642 742.698 190.232 742.698C189.822 742.698 189.439 742.773 189.083 742.924C188.728 743.074 188.413 743.286 188.14 743.559C187.88 743.819 187.675 744.127 187.525 744.482C187.374 744.838 187.299 745.22 187.299 745.631V766.631H181.413V745.631C181.413 744.414 181.639 743.272 182.09 742.206C182.555 741.126 183.184 740.189 183.977 739.396C184.783 738.59 185.72 737.961 186.786 737.51C187.866 737.045 189.015 736.812 190.232 736.812C191.325 736.812 192.378 737.01 193.39 737.407C194.402 737.79 195.311 738.35 196.117 739.089C196.924 738.35 197.826 737.79 198.824 737.407C199.836 737.01 200.889 736.812 201.983 736.812C203.199 736.812 204.341 737.045 205.408 737.51C206.488 737.961 207.424 738.59 208.217 739.396C209.024 740.189 209.653 741.126 210.104 742.206C210.569 743.272 210.801 744.414 210.801 745.631V766.631Z" fill="white" fill-opacity="0.2"/>
<path d="M651.436 790.563C651.436 791.916 651.259 793.222 650.903 794.48C650.561 795.724 650.069 796.893 649.427 797.987C648.784 799.067 648.018 800.058 647.13 800.96C646.241 801.849 645.25 802.615 644.156 803.257C643.062 803.9 641.887 804.399 640.629 804.754C639.385 805.096 638.086 805.267 636.732 805.267H627.873V775.859H636.732C638.086 775.859 639.385 776.036 640.629 776.392C641.887 776.734 643.062 777.226 644.156 777.868C645.25 778.511 646.241 779.283 647.13 780.186C648.018 781.074 648.784 782.066 649.427 783.159C650.069 784.24 650.561 785.408 650.903 786.666C651.259 787.91 651.436 789.209 651.436 790.563ZM645.551 790.563C645.551 789.346 645.318 788.204 644.853 787.138C644.402 786.072 643.773 785.142 642.967 784.349C642.174 783.542 641.237 782.906 640.157 782.442C639.091 781.977 637.949 781.744 636.732 781.744H633.8V799.381H636.732C637.949 799.381 639.091 799.156 640.157 798.704C641.237 798.24 642.174 797.611 642.967 796.818C643.773 796.011 644.402 795.074 644.853 794.008C645.318 792.928 645.551 791.78 645.551 790.563Z" fill="white" fill-opacity="0.2"/>
<path d="M874.523 119.867C874.523 121.083 874.29 122.225 873.826 123.292C873.361 124.358 872.725 125.294 871.918 126.101C871.125 126.894 870.196 127.523 869.129 127.988C868.063 128.453 866.921 128.685 865.704 128.685H851V99.2769H865.704C866.921 99.2769 868.063 99.5093 869.129 99.9741C870.196 100.439 871.125 101.075 871.918 101.881C872.725 102.674 873.361 103.604 873.826 104.67C874.29 105.737 874.523 106.878 874.523 108.095C874.523 108.642 874.448 109.203 874.297 109.777C874.147 110.351 873.935 110.905 873.661 111.438C873.388 111.971 873.06 112.457 872.677 112.894C872.294 113.332 871.87 113.694 871.406 113.981C871.884 114.241 872.315 114.596 872.698 115.047C873.08 115.485 873.409 115.97 873.682 116.503C873.955 117.037 874.16 117.597 874.297 118.185C874.448 118.759 874.523 119.32 874.523 119.867ZM856.886 122.799H865.704C866.115 122.799 866.497 122.724 866.853 122.574C867.208 122.423 867.516 122.218 867.776 121.958C868.049 121.685 868.261 121.371 868.411 121.015C868.562 120.66 868.637 120.277 868.637 119.867C868.637 119.457 868.562 119.074 868.411 118.718C868.261 118.363 868.049 118.055 867.776 117.795C867.516 117.522 867.208 117.31 866.853 117.16C866.497 117.009 866.115 116.934 865.704 116.934H856.886V122.799ZM856.886 111.048H865.704C866.115 111.048 866.497 110.973 866.853 110.823C867.208 110.672 867.516 110.467 867.776 110.208C868.049 109.934 868.261 109.62 868.411 109.264C868.562 108.895 868.637 108.505 868.637 108.095C868.637 107.685 868.562 107.302 868.411 106.947C868.261 106.591 868.049 106.284 867.776 106.024C867.516 105.75 867.208 105.539 866.853 105.388C866.497 105.238 866.115 105.163 865.704 105.163H856.886V111.048Z" fill="white" fill-opacity="0.2"/>
<path d="M596.819 55.0781C596.819 56.7188 596.525 58.25 595.937 59.6719C595.349 61.0801 594.549 62.3037 593.538 63.3428C592.526 64.3682 591.337 65.1816 589.969 65.7832C588.616 66.3711 587.16 66.665 585.601 66.665C584.056 66.665 582.6 66.3711 581.233 65.7832C579.88 65.1816 578.69 64.3682 577.665 63.3428C576.653 62.3037 575.853 61.0801 575.265 59.6719C574.677 58.25 574.383 56.7188 574.383 55.0781C574.383 53.4102 574.677 51.8652 575.265 50.4434C575.853 49.0215 576.653 47.7979 577.665 46.7725C578.69 45.7334 579.88 44.9199 581.233 44.332C582.6 43.7441 584.056 43.4502 585.601 43.4502C587.16 43.4502 588.616 43.7305 589.969 44.291C591.337 44.8379 592.526 45.624 593.538 46.6494C594.549 47.6611 595.349 48.8848 595.937 50.3203C596.525 51.7422 596.819 53.3281 596.819 55.0781ZM591.179 55.0781C591.179 54.1758 591.029 53.3623 590.728 52.6377C590.441 51.8994 590.045 51.2705 589.539 50.751C589.033 50.2178 588.438 49.8145 587.755 49.541C587.085 49.2539 586.367 49.1104 585.601 49.1104C584.836 49.1104 584.111 49.2539 583.427 49.541C582.758 49.8145 582.17 50.2178 581.664 50.751C581.172 51.2705 580.782 51.8994 580.495 52.6377C580.208 53.3623 580.064 54.1758 580.064 55.0781C580.064 55.9258 580.208 56.7119 580.495 57.4365C580.782 58.1611 581.172 58.79 581.664 59.3232C582.17 59.8564 582.758 60.2803 583.427 60.5947C584.111 60.8955 584.836 61.0459 585.601 61.0459C586.367 61.0459 587.085 60.9023 587.755 60.6152C588.438 60.3281 589.033 59.9248 589.539 59.4053C590.045 58.8857 590.441 58.2568 590.728 57.5186C591.029 56.7803 591.179 55.9668 591.179 55.0781Z" fill="white" fill-opacity="0.2"/>
<path d="M677.039 133.052H671.399V102.721H672.753L674.988 105.367C675.494 104.888 676.048 104.437 676.649 104.013C677.251 103.589 677.873 103.227 678.516 102.926C679.172 102.612 679.849 102.366 680.546 102.188C681.243 102.01 681.947 101.921 682.658 101.921C684.203 101.921 685.652 102.202 687.006 102.762C688.373 103.309 689.563 104.088 690.574 105.1C691.6 106.112 692.406 107.335 692.994 108.771C693.582 110.193 693.876 111.772 693.876 113.508C693.876 115.313 693.582 116.94 692.994 118.389C692.406 119.825 691.6 121.048 690.574 122.06C689.563 123.058 688.373 123.824 687.006 124.357C685.652 124.89 684.203 125.157 682.658 125.157C682.166 125.157 681.674 125.102 681.182 124.993C680.703 124.883 680.225 124.74 679.746 124.562C679.281 124.371 678.816 124.159 678.352 123.926C677.9 123.694 677.463 123.455 677.039 123.208V133.052ZM688.257 113.508C688.257 112.579 688.107 111.745 687.806 111.006C687.519 110.268 687.122 109.646 686.616 109.14C686.11 108.621 685.516 108.224 684.832 107.951C684.148 107.677 683.424 107.541 682.658 107.541C681.893 107.541 681.168 107.677 680.484 107.951C679.815 108.224 679.227 108.621 678.721 109.14C678.215 109.646 677.812 110.268 677.511 111.006C677.224 111.745 677.08 112.579 677.08 113.508C677.08 114.397 677.224 115.21 677.511 115.949C677.812 116.687 678.215 117.316 678.721 117.835C679.227 118.355 679.815 118.758 680.484 119.045C681.168 119.333 681.893 119.476 682.658 119.476C683.424 119.476 684.148 119.333 684.832 119.045C685.516 118.758 686.11 118.355 686.616 117.835C687.122 117.316 687.519 116.687 687.806 115.949C688.107 115.21 688.257 114.397 688.257 113.508Z" fill="white" fill-opacity="0.2"/>
<path d="M1366.62 650.674C1366.62 649.034 1366.3 647.452 1365.65 645.928C1365.04 644.375 1364.19 643.013 1363.1 641.841C1362.02 640.64 1360.75 639.688 1359.28 638.985C1357.85 638.252 1356.31 637.886 1354.67 637.886C1353.03 637.886 1351.47 638.165 1350.01 638.721C1348.57 639.278 1347.31 640.098 1346.23 641.182C1345.17 642.266 1344.34 643.614 1343.72 645.225C1343.11 646.807 1342.8 648.624 1342.8 650.674C1342.8 652.637 1343.11 654.41 1343.72 655.992C1344.34 657.544 1345.17 658.877 1346.23 659.991C1347.31 661.104 1348.57 661.968 1350.01 662.583C1351.47 663.169 1353.03 663.462 1354.67 663.462C1356.31 663.462 1357.85 663.111 1359.28 662.408C1360.75 661.675 1362.02 660.723 1363.1 659.551C1364.19 658.35 1365.04 656.988 1365.65 655.464C1366.3 653.912 1366.62 652.315 1366.62 650.674ZM1378.71 668.692C1378.71 672.002 1378.08 675.108 1376.82 678.008C1375.56 680.909 1373.83 683.443 1371.63 685.611C1369.46 687.779 1366.91 689.493 1363.98 690.752C1361.08 692.012 1357.98 692.642 1354.67 692.642L1348.65 692.554V680.557L1354.58 680.645C1356.45 680.645 1358.05 680.396 1359.37 679.898C1360.69 679.429 1361.8 678.77 1362.71 677.92C1363.62 677.1 1364.34 676.148 1364.86 675.064C1365.42 673.98 1365.86 672.837 1366.18 671.636C1365.71 672.398 1365.04 673.028 1364.16 673.526C1363.28 673.995 1362.3 674.375 1361.21 674.668C1360.16 674.991 1359.05 675.21 1357.88 675.328C1356.73 675.445 1355.66 675.503 1354.67 675.503C1351.36 675.503 1348.24 674.932 1345.31 673.79C1342.41 672.647 1339.86 671.021 1337.66 668.912C1335.49 666.773 1333.78 664.166 1332.52 661.089C1331.26 658.013 1330.63 654.542 1330.63 650.674C1330.63 647.129 1331.26 643.833 1332.52 640.787C1333.78 637.74 1335.49 635.103 1337.66 632.876C1339.86 630.65 1342.41 628.907 1345.31 627.647C1348.24 626.387 1351.36 625.757 1354.67 625.757C1356.19 625.757 1357.7 625.948 1359.19 626.329C1360.69 626.709 1362.14 627.237 1363.54 627.911C1364.95 628.584 1366.28 629.375 1367.54 630.284C1368.83 631.192 1370.03 632.173 1371.15 633.228L1375.8 627.647H1378.71V668.692Z" fill="white" fill-opacity="0.1"/>
<path d="M145.827 138.806H132.913L122.671 121.625L112.391 138.806H99.5515L115.88 112.199L99.5515 85.5914H112.391L122.671 102.773L132.913 85.5914H145.827L129.499 112.199L145.827 138.806Z" fill="white" fill-opacity="0.1"/>
<path d="M39.8594 374.118C39.8594 376.716 39.4017 379.054 38.4863 381.132C37.571 383.21 36.3464 384.967 34.8125 386.402C33.2786 387.837 31.4974 388.937 29.4688 389.704C27.4648 390.471 25.362 390.855 23.1602 390.855H1.71094V380.204H23.1602C23.8776 380.204 24.5951 380.093 25.3125 379.87C26.0547 379.648 26.7103 379.289 27.2793 378.794C27.873 378.299 28.3431 377.669 28.6895 376.902C29.0605 376.135 29.2461 375.207 29.2461 374.118C29.2461 373.129 29.0605 372.263 28.6895 371.521C28.3431 370.754 27.873 370.123 27.2793 369.628C26.7103 369.109 26.0547 368.725 25.3125 368.478C24.5951 368.206 23.8776 368.07 23.1602 368.07H1.71094L4.82812 337.64H37.6699V348.29H14.4023L13.4375 357.419H23.1602C25.362 357.419 27.4648 357.803 29.4688 358.57C31.4974 359.337 33.2786 360.45 34.8125 361.909C36.3464 363.344 37.571 365.101 38.4863 367.179C39.4017 369.232 39.8594 371.545 39.8594 374.118Z" fill="white" fill-opacity="0.1"/>
<path d="M922.819 417.364H917.22V400.978H914.493V395.4H917.22V394.354C917.22 393.001 917.473 391.729 917.979 390.54C918.498 389.35 919.203 388.318 920.091 387.443C920.994 386.554 922.039 385.857 923.229 385.351C924.418 384.832 925.69 384.572 927.043 384.572H931.247V390.15H927.043C926.442 390.15 925.881 390.26 925.362 390.478C924.856 390.683 924.411 390.977 924.029 391.36C923.66 391.729 923.366 392.174 923.147 392.693C922.928 393.199 922.819 393.753 922.819 394.354V395.4H929.689V400.978H922.819V417.364Z" fill="white" fill-opacity="0.2"/>
<path d="M1297.97 258.527L1289.61 236.563H1295.98L1300.78 250.263L1305.56 236.563H1311.96L1303.59 258.527H1297.97Z" fill="white" fill-opacity="0.2"/>
<path d="M1415.75 476.612C1414.4 476.612 1413.13 476.359 1411.94 475.854C1410.75 475.334 1409.7 474.63 1408.8 473.741C1407.91 472.839 1407.21 471.793 1406.69 470.604C1406.18 469.414 1405.93 468.143 1405.93 466.789V460.268H1403.2V454.689H1405.93V445.912H1411.51V454.689H1420V460.268H1411.51V466.789C1411.51 467.377 1411.62 467.931 1411.83 468.45C1412.05 468.956 1412.35 469.4 1412.74 469.783C1413.12 470.166 1413.57 470.474 1414.09 470.706C1414.61 470.925 1415.16 471.034 1415.75 471.034H1420V476.612H1415.75Z" fill="white" fill-opacity="0.2"/>
<path d="M1425.25 93.394C1425.25 94.6108 1425.01 95.7524 1424.55 96.8188C1424.08 97.8853 1423.45 98.8218 1422.64 99.6284C1421.85 100.421 1420.92 101.05 1419.85 101.515C1418.79 101.98 1417.65 102.212 1416.43 102.212H1404.66V96.3267H1416.43C1416.84 96.3267 1417.22 96.2515 1417.58 96.1011C1417.93 95.9507 1418.24 95.7456 1418.5 95.4858C1418.77 95.2124 1418.98 94.8979 1419.14 94.5425C1419.29 94.187 1419.36 93.8042 1419.36 93.394C1419.36 92.9839 1419.29 92.6011 1419.14 92.2456C1418.98 91.8901 1418.77 91.5825 1418.5 91.3228C1418.24 91.0493 1417.93 90.8374 1417.58 90.687C1417.22 90.5366 1416.84 90.4614 1416.43 90.4614H1408.41V84.5757H1416.43C1416.84 84.5757 1417.22 84.5005 1417.58 84.3501C1417.93 84.1997 1418.24 83.9946 1418.5 83.7349C1418.77 83.4614 1418.98 83.147 1419.14 82.7915C1419.29 82.4224 1419.36 82.0327 1419.36 81.6226C1419.36 81.2124 1419.29 80.8296 1419.14 80.4741C1418.98 80.1187 1418.77 79.811 1418.5 79.5513C1418.24 79.2778 1417.93 79.0659 1417.58 78.9155C1417.22 78.7651 1416.84 78.6899 1416.43 78.6899H1404.66V72.8042H1416.43C1417.65 72.8042 1418.79 73.0366 1419.85 73.5015C1420.92 73.9663 1421.85 74.6021 1422.64 75.4087C1423.45 76.2017 1424.08 77.1313 1424.55 78.1978C1425.01 79.2642 1425.25 80.4058 1425.25 81.6226C1425.25 82.7026 1425.05 83.7554 1424.65 84.7808C1424.26 85.7925 1423.69 86.7017 1422.97 87.5083C1423.69 88.3149 1424.26 89.231 1424.65 90.2563C1425.05 91.2681 1425.25 92.314 1425.25 93.394Z" fill="white" fill-opacity="0.2"/>
<path d="M24.0924 68.592C24.0924 69.9182 23.7916 71.1418 23.1901 72.2629C22.5885 73.384 21.7614 74.3547 20.7086 75.175C19.6696 75.9817 18.4528 76.6106 17.0582 77.0618C15.6637 77.5266 14.1735 77.759 12.5875 77.759C11.0016 77.759 9.51135 77.5266 8.11682 77.0618C6.72229 76.6106 5.49866 75.9817 4.44592 75.175C3.40686 74.3547 2.58655 73.384 1.98499 72.2629C1.38342 71.1418 1.08264 69.9182 1.08264 68.592C1.08264 67.8264 1.18518 67.0813 1.39026 66.3567C1.59534 65.6184 1.88928 64.928 2.27209 64.2854C2.66858 63.6428 3.14026 63.0549 3.68713 62.5217C4.23401 61.9749 4.84924 61.51 5.53284 61.1272C5.10901 60.7581 4.7262 60.3342 4.3844 59.8557C4.05627 59.3772 3.76917 58.8713 3.52307 58.3381C3.29065 57.8049 3.11292 57.2581 2.98987 56.6975C2.86682 56.1233 2.8053 55.5559 2.8053 54.9954C2.8053 53.8469 3.05823 52.7737 3.56409 51.7756C4.08362 50.7639 4.78772 49.8821 5.67639 49.1301C6.56506 48.3645 7.60413 47.7629 8.79358 47.3254C9.98303 46.8879 11.2477 46.6692 12.5875 46.6692C13.941 46.6692 15.2125 46.8879 16.402 47.3254C17.5914 47.7629 18.6305 48.3645 19.5192 49.1301C20.4215 49.8821 21.1256 50.7639 21.6315 51.7756C22.151 52.7737 22.4108 53.8469 22.4108 54.9954C22.4108 55.5559 22.3424 56.1233 22.2057 56.6975C22.0826 57.2581 21.9049 57.8118 21.6725 58.3586C21.4401 58.8918 21.153 59.3977 20.8112 59.8762C20.483 60.3547 20.1071 60.7854 19.6832 61.1682C20.3531 61.551 20.9615 62.009 21.5084 62.5422C22.0553 63.0754 22.5201 63.6633 22.903 64.3059C23.2858 64.9485 23.5797 65.6321 23.7848 66.3567C23.9899 67.0813 24.0924 67.8264 24.0924 68.592ZM16.6481 55.6311C16.6481 55.1526 16.5387 54.7083 16.3199 54.2981C16.1149 53.8743 15.8278 53.5051 15.4586 53.1907C15.1031 52.8762 14.6793 52.6301 14.1871 52.4524C13.6949 52.2747 13.1754 52.1858 12.6285 52.1858C12.068 52.1858 11.5416 52.2747 11.0494 52.4524C10.5573 52.6301 10.1266 52.8762 9.75745 53.1907C9.40198 53.5051 9.11487 53.8743 8.89612 54.2981C8.69104 54.7083 8.5885 55.1526 8.5885 55.6311C8.5885 56.1096 8.69104 56.554 8.89612 56.9641C9.11487 57.3743 9.40198 57.7297 9.75745 58.0305C10.1266 58.3313 10.5573 58.5706 11.0494 58.7483C11.5416 58.926 12.068 59.0149 12.6285 59.0149C13.1754 59.0149 13.6949 58.926 14.1871 58.7483C14.6793 58.5706 15.1031 58.3313 15.4586 58.0305C15.8278 57.7297 16.1149 57.3743 16.3199 56.9641C16.5387 56.554 16.6481 56.1096 16.6481 55.6311ZM18.2477 68.428C18.2477 67.7717 18.0973 67.1633 17.7965 66.6028C17.5094 66.0286 17.1061 65.5295 16.5865 65.1057C16.0807 64.6819 15.4791 64.3469 14.7819 64.1008C14.0983 63.8547 13.3668 63.7317 12.5875 63.7317C11.8082 63.7317 11.0768 63.8547 10.3932 64.1008C9.70959 64.3469 9.10803 64.6819 8.5885 65.1057C8.08264 65.5295 7.67932 66.0286 7.37854 66.6028C7.09143 67.1633 6.94788 67.7717 6.94788 68.428C6.94788 69.0842 7.09143 69.6858 7.37854 70.2327C7.67932 70.7795 8.08264 71.2512 8.5885 71.6477C9.10803 72.0442 9.70959 72.3586 10.3932 72.5911C11.0768 72.8098 11.8082 72.9192 12.5875 72.9192C13.3668 72.9192 14.0983 72.8098 14.7819 72.5911C15.4791 72.3586 16.0807 72.0442 16.5865 71.6477C17.1061 71.2512 17.5094 70.7795 17.7965 70.2327C18.0973 69.6858 18.2477 69.0842 18.2477 68.428Z" fill="white" fill-opacity="0.2"/>
<path d="M66.2526 710.248C66.2526 706.98 65.7057 704.553 64.6119 702.968C63.5319 701.382 62.0211 700.589 60.0797 700.589C58.152 700.589 56.6549 701.375 55.5885 702.947C54.5221 704.519 53.9889 706.953 53.9889 710.248C53.9889 713.515 54.5221 715.942 55.5885 717.528C56.6549 719.114 58.152 719.907 60.0797 719.907C61.0504 719.907 61.9186 719.716 62.6842 719.333C63.4498 718.936 64.0924 718.342 64.6119 717.549C65.1451 716.756 65.5485 715.758 65.8219 714.554C66.109 713.338 66.2526 711.902 66.2526 710.248ZM71.8512 710.248C71.8512 713.037 71.5436 715.395 70.9283 717.323C70.3131 719.251 69.4723 720.809 68.4059 721.999C67.3395 723.188 66.0885 724.05 64.653 724.583C63.2311 725.102 61.7067 725.362 60.0797 725.362C58.4528 725.362 56.9215 725.095 55.486 724.562C54.0641 724.015 52.8199 723.147 51.7535 721.958C50.7008 720.755 49.8668 719.196 49.2516 717.282C48.6364 715.354 48.3287 713.01 48.3287 710.248C48.3287 707.459 48.6364 705.107 49.2516 703.193C49.8668 701.265 50.7008 699.707 51.7535 698.517C52.8199 697.328 54.0641 696.467 55.486 695.933C56.9215 695.4 58.4528 695.134 60.0797 695.134C61.7067 695.134 63.2311 695.407 64.653 695.954C66.0885 696.487 67.3395 697.355 68.4059 698.558C69.4723 699.761 70.3131 701.32 70.9283 703.234C71.5436 705.148 71.8512 707.486 71.8512 710.248Z" fill="white" fill-opacity="0.2"/>
</svg>
